<?xml version="1.0" encoding="UTF-8" standalone="no"?>
<!DOCTYPE svg PUBLIC "-//W3C//DTD SVG 1.1//EN"
 "http://www.w3.org/Graphics/SVG/1.1/DTD/svg11.dtd">
<!-- Generated by graphviz version 8.0.2 (20230410.1723)
 -->
<!-- Title: ER Pages: 1 -->
<svg width="359pt" height="436pt"
 viewBox="0.00 0.00 359.34 436.37" xmlns="http://www.w3.org/2000/svg" xmlns:xlink="http://www.w3.org/1999/xlink">
<g id="graph0" class="graph" transform="scale(1 1) rotate(0) translate(4 432.37)">
<!-- 课程 -->
<g id="node1" class="node">
<title>课程</title>
<polygon fill="none" stroke="black" points="276.03,-306.26 215.03,-306.26 215.03,-270.26 276.03,-270.26 276.03,-306.26"/>
<text text-anchor="middle" x="245.53" y="-284.56" font-family="Helvetica,Arial,sans-serif" font-size="14.00">课程</text>
</g>
<!-- C&#45;I -->
<g id="node10" class="node">
<title>C&#45;I</title>
<polygon fill="lightgrey" stroke="lightgrey" points="192.71,-372.26 160.37,-354.26 192.71,-336.26 225.05,-354.26 192.71,-372.26"/>
<text text-anchor="middle" x="192.71" y="-350.56" font-family="Helvetica,Arial,sans-serif" font-size="14.00">C&#45;I</text>
</g>
<!-- 课程&#45;&#45;C&#45;I -->
<g id="edge3" class="edge">
<title>课程&#45;&#45;C&#45;I</title>
<path fill="none" stroke="black" d="M230.82,-306.64C221.9,-317.78 210.76,-331.7 202.83,-341.61"/>
<text text-anchor="middle" x="212.33" y="-312.93" font-family="Helvetica,Arial,sans-serif" font-size="14.00">n</text>
</g>
<!-- institute -->
<g id="node2" class="node">
<title>institute</title>
<polygon fill="none" stroke="black" points="143.74,-363.52 77.74,-363.52 77.74,-327.52 143.74,-327.52 143.74,-363.52"/>
<text text-anchor="middle" x="110.74" y="-341.82" font-family="Helvetica,Arial,sans-serif" font-size="14.00">institute</text>
</g>
<!-- name1 -->
<g id="node5" class="node">
<title>name1</title>
<ellipse fill="none" stroke="black" cx="66.11" cy="-410.37" rx="34.39" ry="18"/>
<text text-anchor="middle" x="66.11" y="-406.67" font-family="Helvetica,Arial,sans-serif" font-size="14.00">name</text>
</g>
<!-- institute&#45;&#45;name1 -->
<g id="edge5" class="edge">
<title>institute&#45;&#45;name1</title>
<path fill="none" stroke="black" d="M98.07,-363.93C91.78,-373.07 84.23,-384.04 78.04,-393.03"/>
</g>
<!-- S&#45;I -->
<g id="node12" class="node">
<title>S&#45;I</title>
<polygon fill="lightgrey" stroke="lightgrey" points="81.81,-286.67 49.47,-268.67 81.81,-250.67 114.15,-268.67 81.81,-286.67"/>
<text text-anchor="middle" x="81.81" y="-264.97" font-family="Helvetica,Arial,sans-serif" font-size="14.00">S&#45;I</text>
</g>
<!-- institute&#45;&#45;S&#45;I -->
<g id="edge6" class="edge">
<title>institute&#45;&#45;S&#45;I</title>
<path fill="none" stroke="black" d="M103.88,-327.31C98.9,-314.08 92.24,-296.39 87.54,-283.91"/>
<text text-anchor="middle" x="91.21" y="-309.41" font-family="Helvetica,Arial,sans-serif" font-size="14.00">1</text>
</g>
<!-- student -->
<g id="node3" class="node">
<title>student</title>
<polygon fill="none" stroke="black" points="149.81,-209.64 84.81,-209.64 84.81,-173.64 149.81,-173.64 149.81,-209.64"/>
<text text-anchor="middle" x="117.31" y="-187.94" font-family="Helvetica,Arial,sans-serif" font-size="14.00">student</text>
</g>
<!-- name2 -->
<g id="node6" class="node">
<title>name2</title>
<ellipse fill="none" stroke="black" cx="34.45" cy="-180.58" rx="34.39" ry="18"/>
<text text-anchor="middle" x="34.45" y="-176.88" font-family="Helvetica,Arial,sans-serif" font-size="14.00">name</text>
</g>
<!-- student&#45;&#45;name2 -->
<g id="edge9" class="edge">
<title>student&#45;&#45;name2</title>
<path fill="none" stroke="black" d="M84.56,-187.27C79.13,-186.55 73.49,-185.79 68.04,-185.07"/>
</g>
<!-- grade -->
<g id="node8" class="node">
<title>grade</title>
<ellipse fill="none" stroke="black" cx="157.24" cy="-118" rx="35.19" ry="18"/>
<text text-anchor="middle" x="157.24" y="-114.3" font-family="Helvetica,Arial,sans-serif" font-size="14.00">grade</text>
</g>
<!-- student&#45;&#45;grade -->
<g id="edge8" class="edge">
<title>student&#45;&#45;grade</title>
<path fill="none" stroke="black" d="M127.18,-173.44C133.41,-161.94 141.43,-147.15 147.62,-135.74"/>
</g>
<!-- number -->
<g id="node9" class="node">
<title>number</title>
<ellipse fill="none" stroke="black" cx="81.28" cy="-119.45" rx="42.79" ry="18"/>
<text text-anchor="middle" x="81.28" y="-115.75" font-family="Helvetica,Arial,sans-serif" font-size="14.00">number</text>
</g>
<!-- student&#45;&#45;number -->
<g id="edge10" class="edge">
<title>student&#45;&#45;number</title>
<path fill="none" stroke="black" d="M108.22,-173.43C102.71,-162.4 95.73,-148.39 90.25,-137.41"/>
</g>
<!-- S&#45;C -->
<g id="node11" class="node">
<title>S&#45;C</title>
<polygon fill="lightgrey" stroke="lightgrey" points="197.26,-237.8 159.38,-219.8 197.26,-201.8 235.13,-219.8 197.26,-237.8"/>
<text text-anchor="middle" x="197.26" y="-216.1" font-family="Helvetica,Arial,sans-serif" font-size="14.00">S&#45;C</text>
</g>
<!-- student&#45;&#45;S&#45;C -->
<g id="edge11" class="edge">
<title>student&#45;&#45;S&#45;C</title>
<path fill="none" stroke="black" d="M150.29,-203.26C158.72,-206.23 167.58,-209.35 175.3,-212.07"/>
<text text-anchor="middle" x="156.29" y="-196.46" font-family="Helvetica,Arial,sans-serif" font-size="14.00">m</text>
</g>
<!-- name0 -->
<g id="node4" class="node">
<title>name0</title>
<ellipse fill="none" stroke="black" cx="303.94" cy="-344.01" rx="34.39" ry="18"/>
<text text-anchor="middle" x="303.94" y="-340.31" font-family="Helvetica,Arial,sans-serif" font-size="14.00">name</text>
</g>
<!-- name0&#45;&#45;课程 -->
<g id="edge1" class="edge">
<title>name0&#45;&#45;课程</title>
<path fill="none" stroke="black" d="M287.05,-327.88C280.04,-321.2 271.87,-313.4 264.65,-306.5"/>
</g>
<!-- code -->
<g id="node7" class="node">
<title>code</title>
<ellipse fill="none" stroke="black" cx="319.49" cy="-253.19" rx="31.7" ry="18"/>
<text text-anchor="middle" x="319.49" y="-249.49" font-family="Helvetica,Arial,sans-serif" font-size="14.00">code</text>
</g>
<!-- code&#45;&#45;课程 -->
<g id="edge2" class="edge">
<title>code&#45;&#45;课程</title>
<path fill="none" stroke="black" d="M294.86,-264.87C288.98,-267.66 282.63,-270.67 276.5,-273.58"/>
</g>
<!-- C&#45;I&#45;&#45;institute -->
<g id="edge4" class="edge">
<title>C&#45;I&#45;&#45;institute</title>
<path fill="none" stroke="black" d="M164.96,-351.3C158.27,-350.59 151.06,-349.82 144.14,-349.08"/>
<text text-anchor="middle" x="150.05" y="-353.99" font-family="Helvetica,Arial,sans-serif" font-size="14.00">1</text>
</g>
<!-- S&#45;C&#45;&#45;课程 -->
<g id="edge12" class="edge">
<title>S&#45;C&#45;&#45;课程</title>
<path fill="none" stroke="black" d="M207.03,-233.66C214.41,-244.13 224.61,-258.6 232.66,-270.01"/>
<text text-anchor="middle" x="215.34" y="-255.63" font-family="Helvetica,Arial,sans-serif" font-size="14.00">n</text>
</g>
<!-- S&#45;I&#45;&#45;student -->
<g id="edge7" class="edge">
<title>S&#45;I&#45;&#45;student</title>
<path fill="none" stroke="black" d="M88.49,-254.18C94.27,-241.63 102.67,-223.41 108.91,-209.87"/>
<text text-anchor="middle" x="94.2" y="-235.83" font-family="Helvetica,Arial,sans-serif" font-size="14.00">n</text>
</g>
</g>
</svg>
